<svg width="1361" height="400" viewBox="0 0 1361 400" fill="none" xmlns="http://www.w3.org/2000/svg">
<path fill-rule="evenodd" clip-rule="evenodd" d="M390.734 200L233.977 233.977L200 390.734L166.796 233.977L10.0391 200L166.796 166.796L200 10.0388L233.977 166.796L390.734 200Z" fill="#164396"/>
<path fill-rule="evenodd" clip-rule="evenodd" d="M199.989 314.286L178.367 222.394L85.7031 200L178.367 177.606L199.989 85.7142L222.383 177.606L314.275 200L222.383 222.394L199.989 314.286Z" fill="#EC1C24"/>
<path fill-rule="evenodd" clip-rule="evenodd" d="M200 10.0386C94.9807 10.0386 9.26641 94.9807 9.26641 200.772C9.26641 305.792 94.2085 391.506 200 391.506C305.019 391.506 389.961 306.564 390.734 201.544C390.734 94.9807 305.791 10.0386 200 10.0386C200.772 10.0386 200.772 10.0386 200 10.0386ZM200 0C310.425 0 400 89.5753 400 200C400 310.425 310.425 400 200 400C89.5753 400 0 310.425 0 200C0 90.3475 89.5753 0.772201 200 0Z" fill="#164396"/>
<path fill-rule="evenodd" clip-rule="evenodd" d="M200.014 247.877L189.204 211.583L152.91 200L189.204 189.189L200.014 152.896L211.597 189.189L247.891 200L211.597 211.583L200.014 247.877Z" fill="#FFF100"/>
<path d="M819.235 130.471L867.383 205.987L865.554 174.319V130.471H907.607V268.714H866.164L818.626 193.807L820.454 225.475V269.323H778.402V130.471H819.235ZM670.527 268.714L624.818 130.471H668.699L691.858 222.43L716.237 130.471H760.118L713.799 268.714H670.527ZM612.629 268.714H500.488V130.471H609.581V162.748H544.979V182.236H600.44V214.513H544.979V236.437H612.629V268.714Z" fill="#164396"/>
<path d="M1360.43 183.454H1318.99C1320.21 177.364 1318.38 171.274 1314.72 167.011C1310.45 162.748 1304.97 160.921 1298.87 160.921C1282.42 160.921 1272.06 174.319 1267.18 201.115C1265.96 205.987 1265.96 210.25 1265.96 215.122C1265.96 230.956 1273.28 238.264 1287.29 238.264C1300.7 238.264 1309.24 230.347 1313.5 215.122H1355.55C1351.29 231.565 1341.54 246.181 1328.13 257.143C1314.72 267.496 1298.87 272.368 1281.81 272.368C1265.96 273.586 1250.12 268.105 1237.32 257.752C1226.35 246.79 1220.86 232.174 1221.47 216.949C1221.47 211.468 1222.08 205.378 1222.69 199.897C1225.74 179.8 1235.49 160.921 1251.34 147.523C1264.75 134.734 1283.03 127.426 1301.92 128.035C1320.82 128.035 1335.44 132.298 1345.19 141.433C1355.55 151.177 1360.43 164.575 1359.82 178.582C1361.04 179.8 1361.04 181.627 1360.43 183.454ZM1128.84 269.323H1084.95L1108.72 131.08H1173.33C1186.73 129.862 1200.14 133.516 1211.11 140.824C1219.65 147.523 1223.91 157.267 1223.3 167.62C1223.3 170.665 1222.69 174.319 1222.08 177.364C1216.6 209.641 1195.27 226.084 1158.09 226.084H1136.15L1128.84 269.323ZM1141.63 194.416H1159.92C1169.67 195.634 1178.81 188.326 1180.03 178.582C1180.03 178.582 1180.03 178.582 1180.03 177.973C1180.03 177.364 1180.03 176.146 1180.03 175.537C1180.03 167.62 1172.72 163.966 1158.7 163.357H1146.51L1141.63 194.416ZM997.193 130.471L1031.93 205.987L1035.59 174.319L1042.9 130.471H1084.95L1061.19 268.714H1020.35L985.003 193.807L981.347 225.475L974.033 269.323H932.59L956.359 131.08L997.193 130.471Z" fill="#EC1C24"/>
</svg>
